<svg id="Layer_1" data-name="Layer 1" xmlns="http://www.w3.org/2000/svg" viewBox="0 0 157.2 172.77"><path className="cls-1" d="M210.36,403.12A50.12,50.12,0,1,1,193,400" transform="translate(-139.03 -331.14)"/><path className="cls-1" d="M193,400q2.44,0,4.87.23" transform="translate(-139.03 -331.14)"/><path className="cls-1" d="M235.4,460.15a45,45,0,0,1-31.23-58.89" transform="translate(-139.03 -331.14)"/><path className="cls-1" d="M204.17,401.25a45,45,0,1,1,43.58,60.26" transform="translate(-139.03 -331.14)"/><line className="cls-2" x1="134.54" y1="1.31" x2="135.85"/><polyline className="cls-2" points="157.06 13.68 154.05 27.67 132.83 31.34 124.53 11.3 134.54 1.31"/><polygon className="cls-2" points="124.73 45.99 124.47 11.41 154.05 27.67 124.73 45.99"/><line className="cls-3" x1="124.53" y1="11.31" x2="154.05" y2="27.67"/><line className="cls-3" x1="124.73" y1="45.99" x2="133.4" y2="16.32"/><line className="cls-3" x1="124.73" y1="45.99" x2="143.72" y2="22.86"/><line className="cls-3" x1="133.4" y1="16.32" x2="134.54" y2="1.31"/><line className="cls-3" x1="133.4" y1="16.32" x2="145.72" y2="6.61"/><line className="cls-3" x1="145.72" y1="6.61" x2="143.72" y2="22.86"/><line className="cls-3" x1="143.72" y1="22.86" x2="157.06" y2="13.68"/></svg>
